<svg preserveAspectRatio="none" width="100%" height="100%" overflow="visible" style="display: block;" viewBox="0 0 111 40" fill="none" xmlns="http://www.w3.org/2000/svg">
<g id="Group">
<path id="Vector" d="M17.0512 40L0 29.9611L0.0126165 9.98808L17.0197 0L34.0519 9.96265L34.0614 29.9642L17.0512 40ZM17.0638 18.7173L30.6676 10.6461L17.0323 2.64166L3.41907 10.6239L17.0638 18.7173ZM15.8999 36.6653L15.9126 20.7041L2.29305 12.6774L2.28359 28.6418L15.8999 36.6622V36.6653ZM18.1709 36.694L31.7873 28.6641L31.7715 12.6901L18.1583 20.6946L18.1741 36.694H18.1709Z" fill="var(--fill-0, black)"/>
<path id="Vector_2" d="M89.9052 27.7088L89.839 18.5568L85.3728 25.9668C84.805 26.1194 84.1206 26.113 83.5181 25.989L79.0676 18.6458L79.0046 27.7152L75.6517 27.6866V12.3198L78.7743 12.2848L84.5054 21.7389L90.1323 12.3325L93.2044 12.2976L93.2234 27.712H89.9084L89.9052 27.7088Z" fill="var(--fill-0, black)"/>
<path id="Vector_3" d="M72.8508 20.0413C72.835 23.0771 71.2674 25.6616 68.6085 26.8823C67.2112 27.5244 65.7288 27.7374 64.1801 27.731L57.3514 27.7088L57.3672 12.307L64.6312 12.2689C65.508 12.2657 66.3596 12.4151 67.1986 12.6122C70.5956 13.4832 72.8697 16.4046 72.8477 20.0413H72.8508ZM69.2456 19.8982C69.2141 17.3774 67.4383 15.3937 64.9182 15.2412C63.584 15.1617 62.2719 15.1998 60.903 15.2094L60.9124 24.7492C62.2908 24.7715 63.5556 24.816 64.8583 24.7365C67.4446 24.5807 69.2772 22.5335 69.2456 19.9014V19.8982Z" fill="var(--fill-0, black)"/>
<path id="Vector_4" d="M107.436 24.2325L107.455 19.7726L110.729 19.7598V26.0254C107.963 27.9773 104.458 28.5431 101.282 27.4242C97.8914 26.2289 95.8665 23.0913 96.0999 19.4992C96.3017 16.3934 98.1248 13.8217 101.011 12.69C104.269 11.4089 108.72 11.8508 111 14.6927L108.716 16.8257C106.969 15.09 104.477 14.5496 102.26 15.6305C100.74 16.3711 99.8438 17.7889 99.6893 19.4706C99.4811 21.7435 100.677 23.7907 102.821 24.5918C104.32 25.1512 105.9 24.9796 107.436 24.2357V24.2325Z" fill="var(--fill-0, black)"/>
<path id="Vector_5" d="M43.5553 23.4055C45.5108 24.6039 47.602 25.2715 49.6837 24.6007C50.5448 24.3242 51.0495 23.593 51.0274 22.7983C50.9675 20.7225 48.0121 20.9355 46.4224 20.9196L46.4161 18.6149L49.5513 15.045L42.8708 15.0196L42.8519 12.1649L53.8409 12.1363L53.8661 14.4664L50.4534 18.351C51.7497 18.7071 52.901 19.133 53.721 20.1757C54.6578 21.3646 54.8313 22.8905 54.3613 24.4005C52.9735 28.8668 45.309 28.5648 42.1643 26.0249L43.5553 23.3991V23.4055Z" fill="var(--fill-0, black)"/>
<path id="Vector_6" d="M17.0512 10.0389L10.9101 13.647L8.677 12.3055L17.0607 7.38139L25.4065 12.2546L23.2396 13.6374L17.0512 10.0389Z" fill="var(--fill-0, black)"/>
<path id="Vector_7" d="M19.4483 28.6672L25.5547 25.0338L25.5768 17.7541L27.8289 16.4762L27.8383 26.3117L19.606 31.2263C19.4357 30.3902 19.461 29.7163 19.4483 28.6641V28.6672Z" fill="var(--fill-0, black)"/>
<path id="Vector_8" d="M14.6099 28.6355L14.6004 31.2708L6.23571 26.353L6.2294 16.5112L8.50352 17.7255L8.51299 24.9956L14.6099 28.6355Z" fill="var(--fill-0, black)"/>
</g>
</svg>
